<svg width="112" height="112" viewBox="0 0 112 112" fill="none" xmlns="http://www.w3.org/2000/svg">
<mask id="mask0_1_239" style="mask-type:alpha" maskUnits="userSpaceOnUse" x="0" y="0" width="112" height="112">
<rect width="111.15" height="111.15" fill="#D9D9D9"/>
</mask>
<g mask="url(#mask0_1_239)">
<path d="M46.3122 45.8494V65.3008C46.3122 66.8445 46.9683 67.9437 48.2804 68.5982C49.5926 69.2559 50.8662 69.1987 52.1012 68.4269L67.2686 58.7012C68.4264 58.0065 69.0054 56.9645 69.0054 55.5751C69.0054 54.1857 68.4264 53.1437 67.2686 52.449L52.1012 42.7233C50.8662 41.9515 49.5926 41.8943 48.2804 42.552C46.9683 43.2065 46.3122 44.3057 46.3122 45.8494ZM55.5747 97.2565C49.7856 97.2565 44.3639 96.1573 39.3097 93.959C34.2523 91.7576 29.8526 88.7843 26.1106 85.0392C22.3654 81.2971 19.3922 76.8974 17.1908 71.8401C14.9925 66.7858 13.8933 61.3642 13.8933 55.5751C13.8933 49.786 14.9925 44.3628 17.1908 39.3055C19.3922 34.2512 22.3654 29.8515 26.1106 26.1064C29.8526 22.3643 34.2523 19.3926 39.3097 17.1912C44.3639 14.9929 49.7856 13.8937 55.5747 13.8937C61.3638 13.8937 66.787 14.9929 71.8443 17.1912C76.8986 19.3926 81.2983 22.3643 85.0434 26.1064C88.7855 29.8515 91.7572 34.2512 93.9586 39.3055C96.1569 44.3628 97.2561 49.786 97.2561 55.5751C97.2561 61.3642 96.1569 66.7858 93.9586 71.8401C91.7572 76.8974 88.7855 81.2971 85.0434 85.0392C81.2983 88.7843 76.8986 91.7576 71.8443 93.959C66.787 96.1573 61.3638 97.2565 55.5747 97.2565ZM55.5747 92.6252C65.8407 92.6252 74.5829 89.0175 81.8015 81.802C89.017 74.5834 92.6248 65.8411 92.6248 55.5751C92.6248 45.3091 89.017 36.5668 81.8015 29.3483C74.5829 22.1327 65.8407 18.525 55.5747 18.525C45.3087 18.525 36.568 22.1327 29.3525 29.3483C22.1339 36.5668 18.5246 45.3091 18.5246 55.5751C18.5246 65.8411 22.1339 74.5834 29.3525 81.802C36.568 89.0175 45.3087 92.6252 55.5747 92.6252Z" fill="white"/>
</g>
</svg>
