
<svg width="98" height="87" viewBox="0 0 98 87" fill="none" xmlns="http://www.w3.org/2000/svg">
<path fill-rule="evenodd" clip-rule="evenodd" d="M79.0867 56.8988C79.0867 73.5232 65.6099 87 48.9854 87C32.361 87 18.8842 73.5232 18.8842 56.8988C18.8842 40.2743 32.361 26.7975 48.9854 26.7975C65.6099 26.7975 79.0867 40.2743 79.0867 56.8988ZM47.6676 42.6484C48.2035 41.5581 49.76 41.5581 50.2996 42.6484H50.2959L54.0329 50.2177C54.2458 50.6509 54.6606 50.9519 55.1378 51.0217L63.4891 52.233C64.6932 52.4056 65.174 53.8886 64.304 54.7366L58.2618 60.6247C57.9167 60.9624 57.7589 61.447 57.8396 61.9242L59.2676 70.2424C59.4732 71.4428 58.214 72.3568 57.1385 71.7915L49.6645 67.8673C49.2387 67.6434 48.7248 67.6434 48.299 67.8673L40.8287 71.7915C39.7532 72.3568 38.494 71.4428 38.6996 70.2424L40.1276 61.9242C40.2083 61.447 40.0505 60.9624 39.7054 60.6247L33.6632 54.7366C32.7932 53.8886 33.274 52.4092 34.4781 52.233L42.8294 51.0217C43.3066 50.9519 43.7214 50.6509 43.9343 50.2177L47.6676 42.6484Z" fill="white"/>
<path d="M38.1237 21.717C38.6487 22.5392 38.2449 23.6295 37.3124 23.9122C35.1686 24.5619 31.663 25.6962 29.4604 26.7644C27.089 27.9171 23.6604 30.461 21.858 31.8486C21.1936 32.3589 20.2392 32.212 19.7619 31.5256L0.647637 4.14076C0.016245 3.23772 -0.0204638 1.99696 0.665992 1.1343C0.713713 1.0719 0.768777 1.01316 0.82384 0.95443C1.04776 0.730506 1.30473 0.554304 1.55802 0.418481C2.10865 0.128481 2.72903 0 3.34941 0H21.4249C23.1795 0 24.8094 0.892025 25.7565 2.37139L38.1237 21.717Z" fill="white"/>
<path d="M59.8798 21.717C59.3549 22.5392 59.7587 23.6295 60.6911 23.9122C62.8349 24.5619 66.3406 25.6962 68.5431 26.7644C70.9145 27.9171 74.3431 30.461 76.1455 31.8486C76.81 32.3589 77.7644 32.212 78.2416 31.5256L97.3522 4.14076C97.9836 3.23772 98.0203 1.99696 97.3339 1.1343C97.2862 1.0719 97.2311 1.01316 97.176 0.95443C96.9521 0.730506 96.6952 0.554304 96.4419 0.418481C95.8986 0.128481 95.2745 0 94.6541 0H76.5787C74.824 0 73.1941 0.892025 72.2471 2.37139L59.8798 21.717Z" fill="white"/>
</svg>
